M48
; DRILL file {KiCad (6.0.9-0)} date Tuesday, December 27, 2022 at 10:10:45 pm
; FORMAT={-:-/ absolute / metric / decimal}
; #@! TF.CreationDate,2022-12-27T22:10:45-05:00
; #@! TF.GenerationSoftware,Kicad,Pcbnew,(6.0.9-0)
; #@! TF.FileFunction,MixedPlating,1,2
FMAT,2
METRIC
; #@! TA.AperFunction,Plated,PTH,ViaDrill
T1C0.400
; #@! TA.AperFunction,Plated,PTH,ComponentDrill
T2C0.800
; #@! TA.AperFunction,Plated,PTH,ComponentDrill
T3C1.000
%
G90
G05
T1
X100.2Y-78.0
X100.2Y-80.905
X101.0Y-84.245
X102.475Y-67.2
X103.97Y-47.77
X110.882Y-47.2
X111.4Y-44.85
X112.8Y-44.0
X113.2Y-114.0
X114.593Y-43.276
X119.6Y-131.2
X120.6Y-129.6
X122.6Y-63.2
X122.6Y-64.4
X122.6Y-65.6
X123.8Y-94.8
X127.8Y-62.4
X128.1Y-46.3
X128.8Y-105.6
X131.0Y-103.4
X132.22Y-114.82
X134.8Y-111.0
X135.035Y-65.225
X136.6Y-44.875
X137.623Y-43.977
X139.392Y-43.207
X139.6Y-111.0
X140.6Y-136.6
X142.0Y-137.6
X143.8Y-138.4
X149.0Y-65.6
X149.0Y-70.8
X150.275Y-81.125
X151.3Y-138.5
X152.4Y-46.4
X152.815Y-77.215
X153.6Y-137.6
X155.355Y-73.155
X156.4Y-136.6
X158.9Y-104.7
X164.4Y-87.2
X165.8Y-88.6
X169.0Y-129.8
X169.725Y-129.0
X170.21Y-85.99
X170.524Y-127.8
X171.325Y-127.0
X172.049Y-122.6
X173.0Y-123.8
X173.8Y-125.0
X174.6Y-126.2
T2
X106.125Y-50.18
X106.125Y-57.8
X108.665Y-50.18
X108.665Y-57.8
X111.205Y-50.18
X111.205Y-57.8
X113.745Y-50.18
X113.745Y-57.8
X116.285Y-50.18
X116.285Y-57.8
X117.065Y-118.375
X117.065Y-133.615
X118.825Y-50.18
X118.825Y-57.8
X119.605Y-118.375
X119.605Y-133.615
X121.365Y-50.18
X121.365Y-57.8
X122.145Y-118.375
X122.145Y-133.615
X123.475Y-92.385
X123.475Y-107.625
X123.905Y-50.18
X123.905Y-57.8
X124.685Y-118.375
X124.685Y-133.615
X124.875Y-68.385
X124.875Y-83.625
X126.015Y-92.385
X126.015Y-107.625
X127.225Y-118.375
X127.225Y-133.615
X127.415Y-68.385
X127.415Y-83.625
X128.555Y-92.385
X128.555Y-107.625
X129.765Y-118.375
X129.765Y-133.615
X129.955Y-68.385
X129.955Y-83.625
X131.095Y-92.385
X131.095Y-107.625
X131.125Y-50.18
X131.125Y-57.8
X132.305Y-118.375
X132.305Y-133.615
X132.495Y-68.385
X132.495Y-83.625
X133.635Y-92.385
X133.635Y-107.625
X133.665Y-50.18
X133.665Y-57.8
X134.845Y-118.375
X134.845Y-133.615
X135.035Y-68.385
X135.035Y-83.625
X136.175Y-92.385
X136.175Y-107.625
X136.205Y-50.18
X136.205Y-57.8
X137.385Y-118.375
X137.385Y-133.615
X137.575Y-68.385
X137.575Y-83.625
X138.715Y-92.385
X138.715Y-107.625
X138.745Y-50.18
X138.745Y-57.8
X139.925Y-118.375
X139.925Y-133.615
X140.115Y-68.385
X140.115Y-83.625
X141.255Y-92.385
X141.255Y-107.625
X141.285Y-50.18
X141.285Y-57.8
X142.465Y-118.375
X142.465Y-133.615
X142.655Y-68.385
X142.655Y-83.625
X143.795Y-92.385
X143.795Y-107.625
X143.825Y-50.18
X143.825Y-57.8
X145.005Y-118.375
X145.005Y-133.615
X145.195Y-68.385
X145.195Y-83.625
X146.335Y-92.385
X146.335Y-107.625
X146.365Y-50.18
X146.365Y-57.8
X147.545Y-118.375
X147.545Y-133.615
X147.735Y-68.385
X147.735Y-83.625
X148.875Y-92.385
X148.875Y-107.625
X148.905Y-50.18
X148.905Y-57.8
X150.085Y-118.375
X150.085Y-133.615
X150.275Y-68.385
X150.275Y-83.625
X151.415Y-92.385
X151.415Y-107.625
X152.625Y-118.375
X152.625Y-133.615
X152.815Y-68.385
X152.815Y-83.625
X153.955Y-92.385
X153.955Y-107.625
X155.165Y-118.375
X155.165Y-133.615
X155.355Y-68.385
X155.355Y-83.625
X156.325Y-50.18
X156.325Y-57.8
X156.495Y-92.385
X156.495Y-107.625
X157.705Y-118.375
X157.705Y-133.615
X157.895Y-68.385
X157.895Y-83.625
X158.865Y-50.18
X158.865Y-57.8
X160.245Y-118.375
X160.245Y-133.615
X161.405Y-50.18
X161.405Y-57.8
X162.785Y-118.375
X162.785Y-133.615
X163.945Y-50.18
X163.945Y-57.8
X165.325Y-118.375
X165.325Y-133.615
X166.485Y-50.18
X166.485Y-57.8
X168.2Y-84.575
X168.2Y-87.115
X168.2Y-89.655
X168.2Y-92.195
X168.2Y-94.735
X168.2Y-97.275
X168.2Y-99.815
X169.025Y-50.18
X169.025Y-57.8
X171.565Y-50.18
X171.565Y-57.8
X174.105Y-50.18
X174.105Y-57.8
X175.82Y-84.575
X175.82Y-87.115
X175.82Y-89.655
X175.82Y-92.195
X175.82Y-94.735
X175.82Y-97.275
X175.82Y-99.815
T3
X108.025Y-70.95
X108.025Y-73.49
X108.025Y-76.03
X108.025Y-78.57
X108.025Y-81.11
X108.025Y-83.65
X108.025Y-86.19
X108.025Y-88.73
X108.025Y-91.27
X108.025Y-93.81
X108.025Y-96.35
X108.025Y-98.89
X108.025Y-101.43
X108.025Y-103.97
X108.025Y-106.51
X108.025Y-109.05
T0
M30
