M48
; DRILL file {KiCad (6.0.9-0)} date Wednesday, December 28, 2022 at 10:48:53 am
; FORMAT={-:-/ absolute / metric / decimal}
; #@! TF.CreationDate,2022-12-28T10:48:53-05:00
; #@! TF.GenerationSoftware,Kicad,Pcbnew,(6.0.9-0)
; #@! TF.FileFunction,MixedPlating,1,2
FMAT,2
METRIC
; #@! TA.AperFunction,Plated,PTH,ViaDrill
T1C0.400
; #@! TA.AperFunction,Plated,PTH,ComponentDrill
T2C0.800
; #@! TA.AperFunction,Plated,PTH,ComponentDrill
T3C1.000
%
G90
G05
T1
X100.2Y-78.0
X100.2Y-80.905
X101.0Y-84.245
X102.475Y-67.2
X104.77Y-46.97
X112.6Y-47.2
X112.8Y-44.85
X113.2Y-114.0
X114.4Y-44.0
X114.6Y-119.67
X115.4Y-118.0
X116.2Y-43.2
X123.8Y-94.8
X128.1Y-46.3
X128.8Y-105.6
X131.0Y-103.4
X132.22Y-110.724
X132.495Y-64.4
X134.8Y-109.2
X135.035Y-65.225
X136.6Y-44.875
X137.623Y-43.977
X139.392Y-43.207
X139.84Y-109.16
X149.0Y-70.8
X150.275Y-81.125
X150.4Y-46.4
X152.815Y-77.215
X153.18Y-132.0
X155.2Y-125.2
X155.355Y-73.155
X156.52Y-131.2
X156.6Y-110.0
X159.2Y-111.0
X161.6Y-125.2
X162.9Y-84.3
X169.4Y-117.0
T2
X107.925Y-50.18
X107.925Y-57.8
X110.465Y-50.18
X110.465Y-57.8
X113.005Y-50.18
X113.005Y-57.8
X115.545Y-50.18
X115.545Y-57.8
X118.085Y-50.18
X118.085Y-57.8
X118.465Y-113.375
X118.465Y-128.615
X120.625Y-50.18
X120.625Y-57.8
X121.005Y-113.375
X121.005Y-128.615
X123.165Y-50.18
X123.165Y-57.8
X123.475Y-92.385
X123.475Y-107.625
X123.545Y-113.375
X123.545Y-128.615
X124.875Y-68.385
X124.875Y-83.625
X125.705Y-50.18
X125.705Y-57.8
X126.015Y-92.385
X126.015Y-107.625
X126.085Y-113.375
X126.085Y-128.615
X127.415Y-68.385
X127.415Y-83.625
X128.555Y-92.385
X128.555Y-107.625
X128.625Y-113.375
X128.625Y-128.615
X129.955Y-68.385
X129.955Y-83.625
X131.095Y-92.385
X131.095Y-107.625
X131.125Y-50.18
X131.125Y-57.8
X131.165Y-113.375
X131.165Y-128.615
X132.495Y-68.385
X132.495Y-83.625
X133.635Y-92.385
X133.635Y-107.625
X133.665Y-50.18
X133.665Y-57.8
X133.705Y-113.375
X133.705Y-128.615
X135.035Y-68.385
X135.035Y-83.625
X136.175Y-92.385
X136.175Y-107.625
X136.205Y-50.18
X136.205Y-57.8
X136.245Y-113.375
X136.245Y-128.615
X137.575Y-68.385
X137.575Y-83.625
X138.715Y-92.385
X138.715Y-107.625
X138.745Y-50.18
X138.745Y-57.8
X138.785Y-113.375
X138.785Y-128.615
X140.115Y-68.385
X140.115Y-83.625
X141.255Y-92.385
X141.255Y-107.625
X141.285Y-50.18
X141.285Y-57.8
X141.325Y-113.375
X141.325Y-128.615
X142.655Y-68.385
X142.655Y-83.625
X143.795Y-92.385
X143.795Y-107.625
X143.825Y-50.18
X143.825Y-57.8
X143.865Y-113.375
X143.865Y-128.615
X145.195Y-68.385
X145.195Y-83.625
X146.335Y-92.385
X146.335Y-107.625
X146.365Y-50.18
X146.365Y-57.8
X146.405Y-113.375
X146.405Y-128.615
X147.735Y-68.385
X147.735Y-83.625
X148.875Y-92.385
X148.875Y-107.625
X148.905Y-50.18
X148.905Y-57.8
X148.945Y-113.375
X148.945Y-128.615
X150.275Y-68.385
X150.275Y-83.625
X151.415Y-92.385
X151.415Y-107.625
X151.485Y-113.375
X151.485Y-128.615
X152.815Y-68.385
X152.815Y-83.625
X153.955Y-92.385
X153.955Y-107.625
X154.025Y-113.375
X154.025Y-128.615
X154.125Y-50.18
X154.125Y-57.8
X155.355Y-68.385
X155.355Y-83.625
X156.495Y-92.385
X156.495Y-107.625
X156.565Y-113.375
X156.565Y-128.615
X156.665Y-50.18
X156.665Y-57.8
X157.895Y-68.385
X157.895Y-83.625
X159.105Y-113.375
X159.105Y-128.615
X159.205Y-50.18
X159.205Y-57.8
X161.645Y-113.375
X161.645Y-128.615
X161.745Y-50.18
X161.745Y-57.8
X164.185Y-113.375
X164.185Y-128.615
X164.285Y-50.18
X164.285Y-57.8
X166.725Y-113.375
X166.725Y-128.615
X166.825Y-50.18
X166.825Y-57.8
X168.2Y-84.575
X168.2Y-87.115
X168.2Y-89.655
X168.2Y-92.195
X168.2Y-94.735
X168.2Y-97.275
X168.2Y-99.815
X169.365Y-50.18
X169.365Y-57.8
X171.905Y-50.18
X171.905Y-57.8
X175.82Y-84.575
X175.82Y-87.115
X175.82Y-89.655
X175.82Y-92.195
X175.82Y-94.735
X175.82Y-97.275
X175.82Y-99.815
T3
X108.025Y-70.95
X108.025Y-73.49
X108.025Y-76.03
X108.025Y-78.57
X108.025Y-81.11
X108.025Y-83.65
X108.025Y-86.19
X108.025Y-88.73
X108.025Y-91.27
X108.025Y-93.81
X108.025Y-96.35
X108.025Y-98.89
X108.025Y-101.43
X108.025Y-103.97
X108.025Y-106.51
X108.025Y-109.05
X110.95Y-62.625
X113.49Y-62.625
X116.03Y-62.625
X118.57Y-62.625
X121.11Y-62.625
X123.65Y-62.625
X126.19Y-62.625
X128.73Y-62.625
X131.095Y-136.0
X131.27Y-62.625
X133.635Y-136.0
X133.81Y-62.625
X136.175Y-136.0
X136.35Y-62.625
X138.715Y-136.0
X138.89Y-62.625
X141.255Y-136.0
X141.43Y-62.625
X143.795Y-136.0
X143.97Y-62.625
X146.335Y-136.0
X146.51Y-62.625
X148.875Y-136.0
X149.05Y-62.625
T0
M30
