%TF.GenerationSoftware,KiCad,Pcbnew,(6.0.9-0)*%
%TF.CreationDate,2022-12-28T10:48:57-05:00*%
%TF.ProjectId,6502_computer,36353032-5f63-46f6-9d70-757465722e6b,rev?*%
%TF.SameCoordinates,Original*%
%TF.FileFunction,Soldermask,Bot*%
%TF.FilePolarity,Negative*%
%FSLAX46Y46*%
G04 Gerber Fmt 4.6, Leading zero omitted, Abs format (unit mm)*
G04 Created by KiCad (PCBNEW (6.0.9-0)) date 2022-12-28 10:48:57*
%MOMM*%
%LPD*%
G01*
G04 APERTURE LIST*
%ADD10R,1.600000X1.600000*%
%ADD11O,1.600000X1.600000*%
%ADD12R,1.700000X1.700000*%
%ADD13O,1.700000X1.700000*%
G04 APERTURE END LIST*
D10*
%TO.C,U2*%
X131125000Y-57800000D03*
D11*
X133665000Y-57800000D03*
X136205000Y-57800000D03*
X138745000Y-57800000D03*
X141285000Y-57800000D03*
X143825000Y-57800000D03*
X146365000Y-57800000D03*
X148905000Y-57800000D03*
X148905000Y-50180000D03*
X146365000Y-50180000D03*
X143825000Y-50180000D03*
X141285000Y-50180000D03*
X138745000Y-50180000D03*
X136205000Y-50180000D03*
X133665000Y-50180000D03*
X131125000Y-50180000D03*
%TD*%
D10*
%TO.C,U7*%
X166725000Y-113375000D03*
D11*
X164185000Y-113375000D03*
X161645000Y-113375000D03*
X159105000Y-113375000D03*
X156565000Y-113375000D03*
X154025000Y-113375000D03*
X151485000Y-113375000D03*
X148945000Y-113375000D03*
X146405000Y-113375000D03*
X143865000Y-113375000D03*
X141325000Y-113375000D03*
X138785000Y-113375000D03*
X136245000Y-113375000D03*
X133705000Y-113375000D03*
X131165000Y-113375000D03*
X128625000Y-113375000D03*
X126085000Y-113375000D03*
X123545000Y-113375000D03*
X121005000Y-113375000D03*
X118465000Y-113375000D03*
X118465000Y-128615000D03*
X121005000Y-128615000D03*
X123545000Y-128615000D03*
X126085000Y-128615000D03*
X128625000Y-128615000D03*
X131165000Y-128615000D03*
X133705000Y-128615000D03*
X136245000Y-128615000D03*
X138785000Y-128615000D03*
X141325000Y-128615000D03*
X143865000Y-128615000D03*
X146405000Y-128615000D03*
X148945000Y-128615000D03*
X151485000Y-128615000D03*
X154025000Y-128615000D03*
X156565000Y-128615000D03*
X159105000Y-128615000D03*
X161645000Y-128615000D03*
X164185000Y-128615000D03*
X166725000Y-128615000D03*
%TD*%
D12*
%TO.C,J1*%
X108025000Y-70950000D03*
D13*
X108025000Y-73490000D03*
X108025000Y-76030000D03*
X108025000Y-78570000D03*
X108025000Y-81110000D03*
X108025000Y-83650000D03*
X108025000Y-86190000D03*
X108025000Y-88730000D03*
X108025000Y-91270000D03*
X108025000Y-93810000D03*
X108025000Y-96350000D03*
X108025000Y-98890000D03*
X108025000Y-101430000D03*
X108025000Y-103970000D03*
X108025000Y-106510000D03*
X108025000Y-109050000D03*
%TD*%
D12*
%TO.C,J2*%
X149050000Y-62625000D03*
D13*
X146510000Y-62625000D03*
X143970000Y-62625000D03*
X141430000Y-62625000D03*
X138890000Y-62625000D03*
X136350000Y-62625000D03*
X133810000Y-62625000D03*
X131270000Y-62625000D03*
X128730000Y-62625000D03*
X126190000Y-62625000D03*
X123650000Y-62625000D03*
X121110000Y-62625000D03*
X118570000Y-62625000D03*
X116030000Y-62625000D03*
X113490000Y-62625000D03*
X110950000Y-62625000D03*
%TD*%
D10*
%TO.C,U6*%
X123475000Y-107625000D03*
D11*
X126015000Y-107625000D03*
X128555000Y-107625000D03*
X131095000Y-107625000D03*
X133635000Y-107625000D03*
X136175000Y-107625000D03*
X138715000Y-107625000D03*
X141255000Y-107625000D03*
X143795000Y-107625000D03*
X146335000Y-107625000D03*
X148875000Y-107625000D03*
X151415000Y-107625000D03*
X153955000Y-107625000D03*
X156495000Y-107625000D03*
X156495000Y-92385000D03*
X153955000Y-92385000D03*
X151415000Y-92385000D03*
X148875000Y-92385000D03*
X146335000Y-92385000D03*
X143795000Y-92385000D03*
X141255000Y-92385000D03*
X138715000Y-92385000D03*
X136175000Y-92385000D03*
X133635000Y-92385000D03*
X131095000Y-92385000D03*
X128555000Y-92385000D03*
X126015000Y-92385000D03*
X123475000Y-92385000D03*
%TD*%
D12*
%TO.C,J3*%
X148875000Y-136000000D03*
D13*
X146335000Y-136000000D03*
X143795000Y-136000000D03*
X141255000Y-136000000D03*
X138715000Y-136000000D03*
X136175000Y-136000000D03*
X133635000Y-136000000D03*
X131095000Y-136000000D03*
%TD*%
D10*
%TO.C,U4*%
X124875000Y-83625000D03*
D11*
X127415000Y-83625000D03*
X129955000Y-83625000D03*
X132495000Y-83625000D03*
X135035000Y-83625000D03*
X137575000Y-83625000D03*
X140115000Y-83625000D03*
X142655000Y-83625000D03*
X145195000Y-83625000D03*
X147735000Y-83625000D03*
X150275000Y-83625000D03*
X152815000Y-83625000D03*
X155355000Y-83625000D03*
X157895000Y-83625000D03*
X157895000Y-68385000D03*
X155355000Y-68385000D03*
X152815000Y-68385000D03*
X150275000Y-68385000D03*
X147735000Y-68385000D03*
X145195000Y-68385000D03*
X142655000Y-68385000D03*
X140115000Y-68385000D03*
X137575000Y-68385000D03*
X135035000Y-68385000D03*
X132495000Y-68385000D03*
X129955000Y-68385000D03*
X127415000Y-68385000D03*
X124875000Y-68385000D03*
%TD*%
D10*
%TO.C,U3*%
X154125000Y-57800000D03*
D11*
X156665000Y-57800000D03*
X159205000Y-57800000D03*
X161745000Y-57800000D03*
X164285000Y-57800000D03*
X166825000Y-57800000D03*
X169365000Y-57800000D03*
X171905000Y-57800000D03*
X171905000Y-50180000D03*
X169365000Y-50180000D03*
X166825000Y-50180000D03*
X164285000Y-50180000D03*
X161745000Y-50180000D03*
X159205000Y-50180000D03*
X156665000Y-50180000D03*
X154125000Y-50180000D03*
%TD*%
D10*
%TO.C,U5*%
X168200000Y-84575000D03*
D11*
X168200000Y-87115000D03*
X168200000Y-89655000D03*
X168200000Y-92195000D03*
X168200000Y-94735000D03*
X168200000Y-97275000D03*
X168200000Y-99815000D03*
X175820000Y-99815000D03*
X175820000Y-97275000D03*
X175820000Y-94735000D03*
X175820000Y-92195000D03*
X175820000Y-89655000D03*
X175820000Y-87115000D03*
X175820000Y-84575000D03*
%TD*%
D10*
%TO.C,U1*%
X107925000Y-57800000D03*
D11*
X110465000Y-57800000D03*
X113005000Y-57800000D03*
X115545000Y-57800000D03*
X118085000Y-57800000D03*
X120625000Y-57800000D03*
X123165000Y-57800000D03*
X125705000Y-57800000D03*
X125705000Y-50180000D03*
X123165000Y-50180000D03*
X120625000Y-50180000D03*
X118085000Y-50180000D03*
X115545000Y-50180000D03*
X113005000Y-50180000D03*
X110465000Y-50180000D03*
X107925000Y-50180000D03*
%TD*%
M02*
