%TF.GenerationSoftware,KiCad,Pcbnew,(6.0.9-0)*%
%TF.CreationDate,2022-12-28T10:48:57-05:00*%
%TF.ProjectId,6502_computer,36353032-5f63-46f6-9d70-757465722e6b,rev?*%
%TF.SameCoordinates,Original*%
%TF.FileFunction,Legend,Top*%
%TF.FilePolarity,Positive*%
%FSLAX46Y46*%
G04 Gerber Fmt 4.6, Leading zero omitted, Abs format (unit mm)*
G04 Created by KiCad (PCBNEW (6.0.9-0)) date 2022-12-28 10:48:57*
%MOMM*%
%LPD*%
G01*
G04 APERTURE LIST*
%ADD10C,0.125000*%
%ADD11C,0.150000*%
%ADD12C,0.300000*%
%ADD13C,0.120000*%
G04 APERTURE END LIST*
D10*
X148428571Y-60333333D02*
X148809523Y-60333333D01*
X148352380Y-60561904D02*
X148619047Y-59761904D01*
X148885714Y-60561904D01*
X149304761Y-59761904D02*
X149380952Y-59761904D01*
X149457142Y-59800000D01*
X149495238Y-59838095D01*
X149533333Y-59914285D01*
X149571428Y-60066666D01*
X149571428Y-60257142D01*
X149533333Y-60409523D01*
X149495238Y-60485714D01*
X149457142Y-60523809D01*
X149380952Y-60561904D01*
X149304761Y-60561904D01*
X149228571Y-60523809D01*
X149190476Y-60485714D01*
X149152380Y-60409523D01*
X149114285Y-60257142D01*
X149114285Y-60066666D01*
X149152380Y-59914285D01*
X149190476Y-59838095D01*
X149228571Y-59800000D01*
X149304761Y-59761904D01*
X145828571Y-60333333D02*
X146209523Y-60333333D01*
X145752380Y-60561904D02*
X146019047Y-59761904D01*
X146285714Y-60561904D01*
X146971428Y-60561904D02*
X146514285Y-60561904D01*
X146742857Y-60561904D02*
X146742857Y-59761904D01*
X146666666Y-59876190D01*
X146590476Y-59952380D01*
X146514285Y-59990476D01*
X143428571Y-60333333D02*
X143809523Y-60333333D01*
X143352380Y-60561904D02*
X143619047Y-59761904D01*
X143885714Y-60561904D01*
X144114285Y-59838095D02*
X144152380Y-59800000D01*
X144228571Y-59761904D01*
X144419047Y-59761904D01*
X144495238Y-59800000D01*
X144533333Y-59838095D01*
X144571428Y-59914285D01*
X144571428Y-59990476D01*
X144533333Y-60104761D01*
X144076190Y-60561904D01*
X144571428Y-60561904D01*
X140828571Y-60333333D02*
X141209523Y-60333333D01*
X140752380Y-60561904D02*
X141019047Y-59761904D01*
X141285714Y-60561904D01*
X141476190Y-59761904D02*
X141971428Y-59761904D01*
X141704761Y-60066666D01*
X141819047Y-60066666D01*
X141895238Y-60104761D01*
X141933333Y-60142857D01*
X141971428Y-60219047D01*
X141971428Y-60409523D01*
X141933333Y-60485714D01*
X141895238Y-60523809D01*
X141819047Y-60561904D01*
X141590476Y-60561904D01*
X141514285Y-60523809D01*
X141476190Y-60485714D01*
X138228571Y-60333333D02*
X138609523Y-60333333D01*
X138152380Y-60561904D02*
X138419047Y-59761904D01*
X138685714Y-60561904D01*
X139295238Y-60028571D02*
X139295238Y-60561904D01*
X139104761Y-59723809D02*
X138914285Y-60295238D01*
X139409523Y-60295238D01*
X135628571Y-60333333D02*
X136009523Y-60333333D01*
X135552380Y-60561904D02*
X135819047Y-59761904D01*
X136085714Y-60561904D01*
X136733333Y-59761904D02*
X136352380Y-59761904D01*
X136314285Y-60142857D01*
X136352380Y-60104761D01*
X136428571Y-60066666D01*
X136619047Y-60066666D01*
X136695238Y-60104761D01*
X136733333Y-60142857D01*
X136771428Y-60219047D01*
X136771428Y-60409523D01*
X136733333Y-60485714D01*
X136695238Y-60523809D01*
X136619047Y-60561904D01*
X136428571Y-60561904D01*
X136352380Y-60523809D01*
X136314285Y-60485714D01*
X133228571Y-60333333D02*
X133609523Y-60333333D01*
X133152380Y-60561904D02*
X133419047Y-59761904D01*
X133685714Y-60561904D01*
X134295238Y-59761904D02*
X134142857Y-59761904D01*
X134066666Y-59800000D01*
X134028571Y-59838095D01*
X133952380Y-59952380D01*
X133914285Y-60104761D01*
X133914285Y-60409523D01*
X133952380Y-60485714D01*
X133990476Y-60523809D01*
X134066666Y-60561904D01*
X134219047Y-60561904D01*
X134295238Y-60523809D01*
X134333333Y-60485714D01*
X134371428Y-60409523D01*
X134371428Y-60219047D01*
X134333333Y-60142857D01*
X134295238Y-60104761D01*
X134219047Y-60066666D01*
X134066666Y-60066666D01*
X133990476Y-60104761D01*
X133952380Y-60142857D01*
X133914285Y-60219047D01*
X130628571Y-60333333D02*
X131009523Y-60333333D01*
X130552380Y-60561904D02*
X130819047Y-59761904D01*
X131085714Y-60561904D01*
X131276190Y-59761904D02*
X131809523Y-59761904D01*
X131466666Y-60561904D01*
X128028571Y-60333333D02*
X128409523Y-60333333D01*
X127952380Y-60561904D02*
X128219047Y-59761904D01*
X128485714Y-60561904D01*
X128866666Y-60104761D02*
X128790476Y-60066666D01*
X128752380Y-60028571D01*
X128714285Y-59952380D01*
X128714285Y-59914285D01*
X128752380Y-59838095D01*
X128790476Y-59800000D01*
X128866666Y-59761904D01*
X129019047Y-59761904D01*
X129095238Y-59800000D01*
X129133333Y-59838095D01*
X129171428Y-59914285D01*
X129171428Y-59952380D01*
X129133333Y-60028571D01*
X129095238Y-60066666D01*
X129019047Y-60104761D01*
X128866666Y-60104761D01*
X128790476Y-60142857D01*
X128752380Y-60180952D01*
X128714285Y-60257142D01*
X128714285Y-60409523D01*
X128752380Y-60485714D01*
X128790476Y-60523809D01*
X128866666Y-60561904D01*
X129019047Y-60561904D01*
X129095238Y-60523809D01*
X129133333Y-60485714D01*
X129171428Y-60409523D01*
X129171428Y-60257142D01*
X129133333Y-60180952D01*
X129095238Y-60142857D01*
X129019047Y-60104761D01*
X125628571Y-60333333D02*
X126009523Y-60333333D01*
X125552380Y-60561904D02*
X125819047Y-59761904D01*
X126085714Y-60561904D01*
X126390476Y-60561904D02*
X126542857Y-60561904D01*
X126619047Y-60523809D01*
X126657142Y-60485714D01*
X126733333Y-60371428D01*
X126771428Y-60219047D01*
X126771428Y-59914285D01*
X126733333Y-59838095D01*
X126695238Y-59800000D01*
X126619047Y-59761904D01*
X126466666Y-59761904D01*
X126390476Y-59800000D01*
X126352380Y-59838095D01*
X126314285Y-59914285D01*
X126314285Y-60104761D01*
X126352380Y-60180952D01*
X126390476Y-60219047D01*
X126466666Y-60257142D01*
X126619047Y-60257142D01*
X126695238Y-60219047D01*
X126733333Y-60180952D01*
X126771428Y-60104761D01*
X122647619Y-60333333D02*
X123028571Y-60333333D01*
X122571428Y-60561904D02*
X122838095Y-59761904D01*
X123104761Y-60561904D01*
X123790476Y-60561904D02*
X123333333Y-60561904D01*
X123561904Y-60561904D02*
X123561904Y-59761904D01*
X123485714Y-59876190D01*
X123409523Y-59952380D01*
X123333333Y-59990476D01*
X124285714Y-59761904D02*
X124361904Y-59761904D01*
X124438095Y-59800000D01*
X124476190Y-59838095D01*
X124514285Y-59914285D01*
X124552380Y-60066666D01*
X124552380Y-60257142D01*
X124514285Y-60409523D01*
X124476190Y-60485714D01*
X124438095Y-60523809D01*
X124361904Y-60561904D01*
X124285714Y-60561904D01*
X124209523Y-60523809D01*
X124171428Y-60485714D01*
X124133333Y-60409523D01*
X124095238Y-60257142D01*
X124095238Y-60066666D01*
X124133333Y-59914285D01*
X124171428Y-59838095D01*
X124209523Y-59800000D01*
X124285714Y-59761904D01*
X120047619Y-60333333D02*
X120428571Y-60333333D01*
X119971428Y-60561904D02*
X120238095Y-59761904D01*
X120504761Y-60561904D01*
X121190476Y-60561904D02*
X120733333Y-60561904D01*
X120961904Y-60561904D02*
X120961904Y-59761904D01*
X120885714Y-59876190D01*
X120809523Y-59952380D01*
X120733333Y-59990476D01*
X121952380Y-60561904D02*
X121495238Y-60561904D01*
X121723809Y-60561904D02*
X121723809Y-59761904D01*
X121647619Y-59876190D01*
X121571428Y-59952380D01*
X121495238Y-59990476D01*
X117647619Y-60333333D02*
X118028571Y-60333333D01*
X117571428Y-60561904D02*
X117838095Y-59761904D01*
X118104761Y-60561904D01*
X118790476Y-60561904D02*
X118333333Y-60561904D01*
X118561904Y-60561904D02*
X118561904Y-59761904D01*
X118485714Y-59876190D01*
X118409523Y-59952380D01*
X118333333Y-59990476D01*
X119095238Y-59838095D02*
X119133333Y-59800000D01*
X119209523Y-59761904D01*
X119400000Y-59761904D01*
X119476190Y-59800000D01*
X119514285Y-59838095D01*
X119552380Y-59914285D01*
X119552380Y-59990476D01*
X119514285Y-60104761D01*
X119057142Y-60561904D01*
X119552380Y-60561904D01*
X115047619Y-60333333D02*
X115428571Y-60333333D01*
X114971428Y-60561904D02*
X115238095Y-59761904D01*
X115504761Y-60561904D01*
X116190476Y-60561904D02*
X115733333Y-60561904D01*
X115961904Y-60561904D02*
X115961904Y-59761904D01*
X115885714Y-59876190D01*
X115809523Y-59952380D01*
X115733333Y-59990476D01*
X116457142Y-59761904D02*
X116952380Y-59761904D01*
X116685714Y-60066666D01*
X116800000Y-60066666D01*
X116876190Y-60104761D01*
X116914285Y-60142857D01*
X116952380Y-60219047D01*
X116952380Y-60409523D01*
X116914285Y-60485714D01*
X116876190Y-60523809D01*
X116800000Y-60561904D01*
X116571428Y-60561904D01*
X116495238Y-60523809D01*
X116457142Y-60485714D01*
X112447619Y-60333333D02*
X112828571Y-60333333D01*
X112371428Y-60561904D02*
X112638095Y-59761904D01*
X112904761Y-60561904D01*
X113590476Y-60561904D02*
X113133333Y-60561904D01*
X113361904Y-60561904D02*
X113361904Y-59761904D01*
X113285714Y-59876190D01*
X113209523Y-59952380D01*
X113133333Y-59990476D01*
X114276190Y-60028571D02*
X114276190Y-60561904D01*
X114085714Y-59723809D02*
X113895238Y-60295238D01*
X114390476Y-60295238D01*
X109847619Y-60333333D02*
X110228571Y-60333333D01*
X109771428Y-60561904D02*
X110038095Y-59761904D01*
X110304761Y-60561904D01*
X110990476Y-60561904D02*
X110533333Y-60561904D01*
X110761904Y-60561904D02*
X110761904Y-59761904D01*
X110685714Y-59876190D01*
X110609523Y-59952380D01*
X110533333Y-59990476D01*
X111714285Y-59761904D02*
X111333333Y-59761904D01*
X111295238Y-60142857D01*
X111333333Y-60104761D01*
X111409523Y-60066666D01*
X111600000Y-60066666D01*
X111676190Y-60104761D01*
X111714285Y-60142857D01*
X111752380Y-60219047D01*
X111752380Y-60409523D01*
X111714285Y-60485714D01*
X111676190Y-60523809D01*
X111600000Y-60561904D01*
X111409523Y-60561904D01*
X111333333Y-60523809D01*
X111295238Y-60485714D01*
X148409523Y-138961904D02*
X148409523Y-138161904D01*
X148600000Y-138161904D01*
X148714285Y-138200000D01*
X148790476Y-138276190D01*
X148828571Y-138352380D01*
X148866666Y-138504761D01*
X148866666Y-138619047D01*
X148828571Y-138771428D01*
X148790476Y-138847619D01*
X148714285Y-138923809D01*
X148600000Y-138961904D01*
X148409523Y-138961904D01*
X149361904Y-138161904D02*
X149438095Y-138161904D01*
X149514285Y-138200000D01*
X149552380Y-138238095D01*
X149590476Y-138314285D01*
X149628571Y-138466666D01*
X149628571Y-138657142D01*
X149590476Y-138809523D01*
X149552380Y-138885714D01*
X149514285Y-138923809D01*
X149438095Y-138961904D01*
X149361904Y-138961904D01*
X149285714Y-138923809D01*
X149247619Y-138885714D01*
X149209523Y-138809523D01*
X149171428Y-138657142D01*
X149171428Y-138466666D01*
X149209523Y-138314285D01*
X149247619Y-138238095D01*
X149285714Y-138200000D01*
X149361904Y-138161904D01*
X145809523Y-138961904D02*
X145809523Y-138161904D01*
X146000000Y-138161904D01*
X146114285Y-138200000D01*
X146190476Y-138276190D01*
X146228571Y-138352380D01*
X146266666Y-138504761D01*
X146266666Y-138619047D01*
X146228571Y-138771428D01*
X146190476Y-138847619D01*
X146114285Y-138923809D01*
X146000000Y-138961904D01*
X145809523Y-138961904D01*
X147028571Y-138961904D02*
X146571428Y-138961904D01*
X146800000Y-138961904D02*
X146800000Y-138161904D01*
X146723809Y-138276190D01*
X146647619Y-138352380D01*
X146571428Y-138390476D01*
X143209523Y-138961904D02*
X143209523Y-138161904D01*
X143400000Y-138161904D01*
X143514285Y-138200000D01*
X143590476Y-138276190D01*
X143628571Y-138352380D01*
X143666666Y-138504761D01*
X143666666Y-138619047D01*
X143628571Y-138771428D01*
X143590476Y-138847619D01*
X143514285Y-138923809D01*
X143400000Y-138961904D01*
X143209523Y-138961904D01*
X143971428Y-138238095D02*
X144009523Y-138200000D01*
X144085714Y-138161904D01*
X144276190Y-138161904D01*
X144352380Y-138200000D01*
X144390476Y-138238095D01*
X144428571Y-138314285D01*
X144428571Y-138390476D01*
X144390476Y-138504761D01*
X143933333Y-138961904D01*
X144428571Y-138961904D01*
X140809523Y-138961904D02*
X140809523Y-138161904D01*
X141000000Y-138161904D01*
X141114285Y-138200000D01*
X141190476Y-138276190D01*
X141228571Y-138352380D01*
X141266666Y-138504761D01*
X141266666Y-138619047D01*
X141228571Y-138771428D01*
X141190476Y-138847619D01*
X141114285Y-138923809D01*
X141000000Y-138961904D01*
X140809523Y-138961904D01*
X141533333Y-138161904D02*
X142028571Y-138161904D01*
X141761904Y-138466666D01*
X141876190Y-138466666D01*
X141952380Y-138504761D01*
X141990476Y-138542857D01*
X142028571Y-138619047D01*
X142028571Y-138809523D01*
X141990476Y-138885714D01*
X141952380Y-138923809D01*
X141876190Y-138961904D01*
X141647619Y-138961904D01*
X141571428Y-138923809D01*
X141533333Y-138885714D01*
X138209523Y-138961904D02*
X138209523Y-138161904D01*
X138400000Y-138161904D01*
X138514285Y-138200000D01*
X138590476Y-138276190D01*
X138628571Y-138352380D01*
X138666666Y-138504761D01*
X138666666Y-138619047D01*
X138628571Y-138771428D01*
X138590476Y-138847619D01*
X138514285Y-138923809D01*
X138400000Y-138961904D01*
X138209523Y-138961904D01*
X139352380Y-138428571D02*
X139352380Y-138961904D01*
X139161904Y-138123809D02*
X138971428Y-138695238D01*
X139466666Y-138695238D01*
X135609523Y-138961904D02*
X135609523Y-138161904D01*
X135800000Y-138161904D01*
X135914285Y-138200000D01*
X135990476Y-138276190D01*
X136028571Y-138352380D01*
X136066666Y-138504761D01*
X136066666Y-138619047D01*
X136028571Y-138771428D01*
X135990476Y-138847619D01*
X135914285Y-138923809D01*
X135800000Y-138961904D01*
X135609523Y-138961904D01*
X136790476Y-138161904D02*
X136409523Y-138161904D01*
X136371428Y-138542857D01*
X136409523Y-138504761D01*
X136485714Y-138466666D01*
X136676190Y-138466666D01*
X136752380Y-138504761D01*
X136790476Y-138542857D01*
X136828571Y-138619047D01*
X136828571Y-138809523D01*
X136790476Y-138885714D01*
X136752380Y-138923809D01*
X136676190Y-138961904D01*
X136485714Y-138961904D01*
X136409523Y-138923809D01*
X136371428Y-138885714D01*
X133209523Y-138961904D02*
X133209523Y-138161904D01*
X133400000Y-138161904D01*
X133514285Y-138200000D01*
X133590476Y-138276190D01*
X133628571Y-138352380D01*
X133666666Y-138504761D01*
X133666666Y-138619047D01*
X133628571Y-138771428D01*
X133590476Y-138847619D01*
X133514285Y-138923809D01*
X133400000Y-138961904D01*
X133209523Y-138961904D01*
X134352380Y-138161904D02*
X134200000Y-138161904D01*
X134123809Y-138200000D01*
X134085714Y-138238095D01*
X134009523Y-138352380D01*
X133971428Y-138504761D01*
X133971428Y-138809523D01*
X134009523Y-138885714D01*
X134047619Y-138923809D01*
X134123809Y-138961904D01*
X134276190Y-138961904D01*
X134352380Y-138923809D01*
X134390476Y-138885714D01*
X134428571Y-138809523D01*
X134428571Y-138619047D01*
X134390476Y-138542857D01*
X134352380Y-138504761D01*
X134276190Y-138466666D01*
X134123809Y-138466666D01*
X134047619Y-138504761D01*
X134009523Y-138542857D01*
X133971428Y-138619047D01*
X130609523Y-138961904D02*
X130609523Y-138161904D01*
X130800000Y-138161904D01*
X130914285Y-138200000D01*
X130990476Y-138276190D01*
X131028571Y-138352380D01*
X131066666Y-138504761D01*
X131066666Y-138619047D01*
X131028571Y-138771428D01*
X130990476Y-138847619D01*
X130914285Y-138923809D01*
X130800000Y-138961904D01*
X130609523Y-138961904D01*
X131333333Y-138161904D02*
X131866666Y-138161904D01*
X131523809Y-138961904D01*
D11*
X105928571Y-135114285D02*
X105928571Y-135447619D01*
X106452380Y-135447619D02*
X105452380Y-135447619D01*
X105452380Y-134971428D01*
X105452380Y-134685714D02*
X106452380Y-134447619D01*
X105738095Y-134257142D01*
X106452380Y-134066666D01*
X105452380Y-133828571D01*
X105547619Y-132733333D02*
X105500000Y-132685714D01*
X105452380Y-132590476D01*
X105452380Y-132352380D01*
X105500000Y-132257142D01*
X105547619Y-132209523D01*
X105642857Y-132161904D01*
X105738095Y-132161904D01*
X105880952Y-132209523D01*
X106452380Y-132780952D01*
X106452380Y-132161904D01*
X105452380Y-131542857D02*
X105452380Y-131447619D01*
X105500000Y-131352380D01*
X105547619Y-131304761D01*
X105642857Y-131257142D01*
X105833333Y-131209523D01*
X106071428Y-131209523D01*
X106261904Y-131257142D01*
X106357142Y-131304761D01*
X106404761Y-131352380D01*
X106452380Y-131447619D01*
X106452380Y-131542857D01*
X106404761Y-131638095D01*
X106357142Y-131685714D01*
X106261904Y-131733333D01*
X106071428Y-131780952D01*
X105833333Y-131780952D01*
X105642857Y-131733333D01*
X105547619Y-131685714D01*
X105500000Y-131638095D01*
X105452380Y-131542857D01*
X105547619Y-130828571D02*
X105500000Y-130780952D01*
X105452380Y-130685714D01*
X105452380Y-130447619D01*
X105500000Y-130352380D01*
X105547619Y-130304761D01*
X105642857Y-130257142D01*
X105738095Y-130257142D01*
X105880952Y-130304761D01*
X106452380Y-130876190D01*
X106452380Y-130257142D01*
X105452380Y-129923809D02*
X105452380Y-129304761D01*
X105833333Y-129638095D01*
X105833333Y-129495238D01*
X105880952Y-129400000D01*
X105928571Y-129352380D01*
X106023809Y-129304761D01*
X106261904Y-129304761D01*
X106357142Y-129352380D01*
X106404761Y-129400000D01*
X106452380Y-129495238D01*
X106452380Y-129780952D01*
X106404761Y-129876190D01*
X106357142Y-129923809D01*
D12*
X101504761Y-134666666D02*
X101504761Y-135047619D01*
X101600000Y-135238095D01*
X101695238Y-135333333D01*
X101980952Y-135523809D01*
X102361904Y-135619047D01*
X103123809Y-135619047D01*
X103314285Y-135523809D01*
X103409523Y-135428571D01*
X103504761Y-135238095D01*
X103504761Y-134857142D01*
X103409523Y-134666666D01*
X103314285Y-134571428D01*
X103123809Y-134476190D01*
X102647619Y-134476190D01*
X102457142Y-134571428D01*
X102361904Y-134666666D01*
X102266666Y-134857142D01*
X102266666Y-135238095D01*
X102361904Y-135428571D01*
X102457142Y-135523809D01*
X102647619Y-135619047D01*
X101504761Y-132666666D02*
X101504761Y-133619047D01*
X102457142Y-133714285D01*
X102361904Y-133619047D01*
X102266666Y-133428571D01*
X102266666Y-132952380D01*
X102361904Y-132761904D01*
X102457142Y-132666666D01*
X102647619Y-132571428D01*
X103123809Y-132571428D01*
X103314285Y-132666666D01*
X103409523Y-132761904D01*
X103504761Y-132952380D01*
X103504761Y-133428571D01*
X103409523Y-133619047D01*
X103314285Y-133714285D01*
X101504761Y-131333333D02*
X101504761Y-131142857D01*
X101600000Y-130952380D01*
X101695238Y-130857142D01*
X101885714Y-130761904D01*
X102266666Y-130666666D01*
X102742857Y-130666666D01*
X103123809Y-130761904D01*
X103314285Y-130857142D01*
X103409523Y-130952380D01*
X103504761Y-131142857D01*
X103504761Y-131333333D01*
X103409523Y-131523809D01*
X103314285Y-131619047D01*
X103123809Y-131714285D01*
X102742857Y-131809523D01*
X102266666Y-131809523D01*
X101885714Y-131714285D01*
X101695238Y-131619047D01*
X101600000Y-131523809D01*
X101504761Y-131333333D01*
X101695238Y-129904761D02*
X101600000Y-129809523D01*
X101504761Y-129619047D01*
X101504761Y-129142857D01*
X101600000Y-128952380D01*
X101695238Y-128857142D01*
X101885714Y-128761904D01*
X102076190Y-128761904D01*
X102361904Y-128857142D01*
X103504761Y-130000000D01*
X103504761Y-128761904D01*
X103314285Y-125238095D02*
X103409523Y-125333333D01*
X103504761Y-125619047D01*
X103504761Y-125809523D01*
X103409523Y-126095238D01*
X103219047Y-126285714D01*
X103028571Y-126380952D01*
X102647619Y-126476190D01*
X102361904Y-126476190D01*
X101980952Y-126380952D01*
X101790476Y-126285714D01*
X101600000Y-126095238D01*
X101504761Y-125809523D01*
X101504761Y-125619047D01*
X101600000Y-125333333D01*
X101695238Y-125238095D01*
X103504761Y-124095238D02*
X103409523Y-124285714D01*
X103314285Y-124380952D01*
X103123809Y-124476190D01*
X102552380Y-124476190D01*
X102361904Y-124380952D01*
X102266666Y-124285714D01*
X102171428Y-124095238D01*
X102171428Y-123809523D01*
X102266666Y-123619047D01*
X102361904Y-123523809D01*
X102552380Y-123428571D01*
X103123809Y-123428571D01*
X103314285Y-123523809D01*
X103409523Y-123619047D01*
X103504761Y-123809523D01*
X103504761Y-124095238D01*
X102171428Y-122571428D02*
X103504761Y-122571428D01*
X102361904Y-122571428D02*
X102266666Y-122476190D01*
X102171428Y-122285714D01*
X102171428Y-122000000D01*
X102266666Y-121809523D01*
X102457142Y-121714285D01*
X103504761Y-121714285D01*
X102171428Y-121047619D02*
X102171428Y-120285714D01*
X101504761Y-120761904D02*
X103219047Y-120761904D01*
X103409523Y-120666666D01*
X103504761Y-120476190D01*
X103504761Y-120285714D01*
X103504761Y-119619047D02*
X102171428Y-119619047D01*
X102552380Y-119619047D02*
X102361904Y-119523809D01*
X102266666Y-119428571D01*
X102171428Y-119238095D01*
X102171428Y-119047619D01*
X103504761Y-118095238D02*
X103409523Y-118285714D01*
X103314285Y-118380952D01*
X103123809Y-118476190D01*
X102552380Y-118476190D01*
X102361904Y-118380952D01*
X102266666Y-118285714D01*
X102171428Y-118095238D01*
X102171428Y-117809523D01*
X102266666Y-117619047D01*
X102361904Y-117523809D01*
X102552380Y-117428571D01*
X103123809Y-117428571D01*
X103314285Y-117523809D01*
X103409523Y-117619047D01*
X103504761Y-117809523D01*
X103504761Y-118095238D01*
X103504761Y-116285714D02*
X103409523Y-116476190D01*
X103219047Y-116571428D01*
X101504761Y-116571428D01*
X103504761Y-115238095D02*
X103409523Y-115428571D01*
X103219047Y-115523809D01*
X101504761Y-115523809D01*
X103409523Y-113714285D02*
X103504761Y-113904761D01*
X103504761Y-114285714D01*
X103409523Y-114476190D01*
X103219047Y-114571428D01*
X102457142Y-114571428D01*
X102266666Y-114476190D01*
X102171428Y-114285714D01*
X102171428Y-113904761D01*
X102266666Y-113714285D01*
X102457142Y-113619047D01*
X102647619Y-113619047D01*
X102838095Y-114571428D01*
X103504761Y-112761904D02*
X102171428Y-112761904D01*
X102552380Y-112761904D02*
X102361904Y-112666666D01*
X102266666Y-112571428D01*
X102171428Y-112380952D01*
X102171428Y-112190476D01*
X101504761Y-110285714D02*
X103504761Y-109619047D01*
X101504761Y-108952380D01*
X103504761Y-107238095D02*
X103504761Y-108380952D01*
X103504761Y-107809523D02*
X101504761Y-107809523D01*
X101790476Y-108000000D01*
X101980952Y-108190476D01*
X102076190Y-108380952D01*
X103314285Y-106380952D02*
X103409523Y-106285714D01*
X103504761Y-106380952D01*
X103409523Y-106476190D01*
X103314285Y-106380952D01*
X103504761Y-106380952D01*
X103504761Y-104380952D02*
X103504761Y-105523809D01*
X103504761Y-104952380D02*
X101504761Y-104952380D01*
X101790476Y-105142857D01*
X101980952Y-105333333D01*
X102076190Y-105523809D01*
D11*
%TO.C,U2*%
X128247380Y-54751904D02*
X129056904Y-54751904D01*
X129152142Y-54704285D01*
X129199761Y-54656666D01*
X129247380Y-54561428D01*
X129247380Y-54370952D01*
X129199761Y-54275714D01*
X129152142Y-54228095D01*
X129056904Y-54180476D01*
X128247380Y-54180476D01*
X128342619Y-53751904D02*
X128295000Y-53704285D01*
X128247380Y-53609047D01*
X128247380Y-53370952D01*
X128295000Y-53275714D01*
X128342619Y-53228095D01*
X128437857Y-53180476D01*
X128533095Y-53180476D01*
X128675952Y-53228095D01*
X129247380Y-53799523D01*
X129247380Y-53180476D01*
%TO.C,U7*%
X168507380Y-121756904D02*
X169316904Y-121756904D01*
X169412142Y-121709285D01*
X169459761Y-121661666D01*
X169507380Y-121566428D01*
X169507380Y-121375952D01*
X169459761Y-121280714D01*
X169412142Y-121233095D01*
X169316904Y-121185476D01*
X168507380Y-121185476D01*
X168507380Y-120804523D02*
X168507380Y-120137857D01*
X169507380Y-120566428D01*
%TO.C,J1*%
X107691666Y-67632380D02*
X107691666Y-68346666D01*
X107644047Y-68489523D01*
X107548809Y-68584761D01*
X107405952Y-68632380D01*
X107310714Y-68632380D01*
X108691666Y-68632380D02*
X108120238Y-68632380D01*
X108405952Y-68632380D02*
X108405952Y-67632380D01*
X108310714Y-67775238D01*
X108215476Y-67870476D01*
X108120238Y-67918095D01*
%TO.C,U6*%
X120597380Y-100766904D02*
X121406904Y-100766904D01*
X121502142Y-100719285D01*
X121549761Y-100671666D01*
X121597380Y-100576428D01*
X121597380Y-100385952D01*
X121549761Y-100290714D01*
X121502142Y-100243095D01*
X121406904Y-100195476D01*
X120597380Y-100195476D01*
X120597380Y-99290714D02*
X120597380Y-99481190D01*
X120645000Y-99576428D01*
X120692619Y-99624047D01*
X120835476Y-99719285D01*
X121025952Y-99766904D01*
X121406904Y-99766904D01*
X121502142Y-99719285D01*
X121549761Y-99671666D01*
X121597380Y-99576428D01*
X121597380Y-99385952D01*
X121549761Y-99290714D01*
X121502142Y-99243095D01*
X121406904Y-99195476D01*
X121168809Y-99195476D01*
X121073571Y-99243095D01*
X121025952Y-99290714D01*
X120978333Y-99385952D01*
X120978333Y-99576428D01*
X121025952Y-99671666D01*
X121073571Y-99719285D01*
X121168809Y-99766904D01*
%TO.C,U4*%
X121997380Y-76766904D02*
X122806904Y-76766904D01*
X122902142Y-76719285D01*
X122949761Y-76671666D01*
X122997380Y-76576428D01*
X122997380Y-76385952D01*
X122949761Y-76290714D01*
X122902142Y-76243095D01*
X122806904Y-76195476D01*
X121997380Y-76195476D01*
X122330714Y-75290714D02*
X122997380Y-75290714D01*
X121949761Y-75528809D02*
X122664047Y-75766904D01*
X122664047Y-75147857D01*
%TO.C,U3*%
X151247380Y-54751904D02*
X152056904Y-54751904D01*
X152152142Y-54704285D01*
X152199761Y-54656666D01*
X152247380Y-54561428D01*
X152247380Y-54370952D01*
X152199761Y-54275714D01*
X152152142Y-54228095D01*
X152056904Y-54180476D01*
X151247380Y-54180476D01*
X151247380Y-53799523D02*
X151247380Y-53180476D01*
X151628333Y-53513809D01*
X151628333Y-53370952D01*
X151675952Y-53275714D01*
X151723571Y-53228095D01*
X151818809Y-53180476D01*
X152056904Y-53180476D01*
X152152142Y-53228095D01*
X152199761Y-53275714D01*
X152247380Y-53370952D01*
X152247380Y-53656666D01*
X152199761Y-53751904D01*
X152152142Y-53799523D01*
%TO.C,U5*%
X171248095Y-81697380D02*
X171248095Y-82506904D01*
X171295714Y-82602142D01*
X171343333Y-82649761D01*
X171438571Y-82697380D01*
X171629047Y-82697380D01*
X171724285Y-82649761D01*
X171771904Y-82602142D01*
X171819523Y-82506904D01*
X171819523Y-81697380D01*
X172771904Y-81697380D02*
X172295714Y-81697380D01*
X172248095Y-82173571D01*
X172295714Y-82125952D01*
X172390952Y-82078333D01*
X172629047Y-82078333D01*
X172724285Y-82125952D01*
X172771904Y-82173571D01*
X172819523Y-82268809D01*
X172819523Y-82506904D01*
X172771904Y-82602142D01*
X172724285Y-82649761D01*
X172629047Y-82697380D01*
X172390952Y-82697380D01*
X172295714Y-82649761D01*
X172248095Y-82602142D01*
%TO.C,U1*%
X105047380Y-54751904D02*
X105856904Y-54751904D01*
X105952142Y-54704285D01*
X105999761Y-54656666D01*
X106047380Y-54561428D01*
X106047380Y-54370952D01*
X105999761Y-54275714D01*
X105952142Y-54228095D01*
X105856904Y-54180476D01*
X105047380Y-54180476D01*
X106047380Y-53180476D02*
X106047380Y-53751904D01*
X106047380Y-53466190D02*
X105047380Y-53466190D01*
X105190238Y-53561428D01*
X105285476Y-53656666D01*
X105333095Y-53751904D01*
D13*
%TO.C,U2*%
X129795000Y-54990000D02*
X129795000Y-56640000D01*
X129795000Y-56640000D02*
X150235000Y-56640000D01*
X150235000Y-51340000D02*
X129795000Y-51340000D01*
X129795000Y-51340000D02*
X129795000Y-52990000D01*
X150235000Y-56640000D02*
X150235000Y-51340000D01*
X129795000Y-54990000D02*
G75*
G03*
X129795000Y-52990000I0J1000000D01*
G01*
%TO.C,U7*%
X168055000Y-127455000D02*
X168055000Y-121995000D01*
X117075000Y-129945000D02*
X168115000Y-129945000D01*
X117075000Y-112045000D02*
X117075000Y-129945000D01*
X168115000Y-112045000D02*
X117075000Y-112045000D01*
X168115000Y-129945000D02*
X168115000Y-112045000D01*
X168055000Y-119995000D02*
X168055000Y-114535000D01*
X168055000Y-114535000D02*
X117135000Y-114535000D01*
X117135000Y-127455000D02*
X168055000Y-127455000D01*
X117135000Y-114535000D02*
X117135000Y-127455000D01*
X168055000Y-119995000D02*
G75*
G03*
X168055000Y-121995000I0J-1000000D01*
G01*
%TO.C,J1*%
X106695000Y-72220000D02*
X109355000Y-72220000D01*
X109355000Y-72220000D02*
X109355000Y-110380000D01*
X106695000Y-72220000D02*
X106695000Y-110380000D01*
X108025000Y-69620000D02*
X109355000Y-69620000D01*
X109355000Y-69620000D02*
X109355000Y-70950000D01*
X106695000Y-110380000D02*
X109355000Y-110380000D01*
%TO.C,J2*%
X147780000Y-61295000D02*
X109620000Y-61295000D01*
X147780000Y-61295000D02*
X147780000Y-63955000D01*
X109620000Y-61295000D02*
X109620000Y-63955000D01*
X150380000Y-63955000D02*
X149050000Y-63955000D01*
X147780000Y-63955000D02*
X109620000Y-63955000D01*
X150380000Y-62625000D02*
X150380000Y-63955000D01*
%TO.C,U6*%
X157825000Y-93545000D02*
X122145000Y-93545000D01*
X157885000Y-91055000D02*
X122085000Y-91055000D01*
X157825000Y-106465000D02*
X157825000Y-93545000D01*
X122145000Y-106465000D02*
X157825000Y-106465000D01*
X122085000Y-108955000D02*
X157885000Y-108955000D01*
X122145000Y-101005000D02*
X122145000Y-106465000D01*
X157885000Y-108955000D02*
X157885000Y-91055000D01*
X122145000Y-93545000D02*
X122145000Y-99005000D01*
X122085000Y-91055000D02*
X122085000Y-108955000D01*
X122145000Y-101005000D02*
G75*
G03*
X122145000Y-99005000I0J1000000D01*
G01*
%TO.C,J3*%
X148875000Y-134670000D02*
X150205000Y-134670000D01*
X147605000Y-134670000D02*
X129765000Y-134670000D01*
X129765000Y-134670000D02*
X129765000Y-137330000D01*
X150205000Y-134670000D02*
X150205000Y-136000000D01*
X147605000Y-134670000D02*
X147605000Y-137330000D01*
X147605000Y-137330000D02*
X129765000Y-137330000D01*
%TO.C,U4*%
X123545000Y-82465000D02*
X159225000Y-82465000D01*
X159285000Y-67055000D02*
X123485000Y-67055000D01*
X123545000Y-69545000D02*
X123545000Y-75005000D01*
X123485000Y-84955000D02*
X159285000Y-84955000D01*
X159225000Y-69545000D02*
X123545000Y-69545000D01*
X159285000Y-84955000D02*
X159285000Y-67055000D01*
X123485000Y-67055000D02*
X123485000Y-84955000D01*
X159225000Y-82465000D02*
X159225000Y-69545000D01*
X123545000Y-77005000D02*
X123545000Y-82465000D01*
X123545000Y-77005000D02*
G75*
G03*
X123545000Y-75005000I0J1000000D01*
G01*
%TO.C,U3*%
X173235000Y-51340000D02*
X152795000Y-51340000D01*
X152795000Y-56640000D02*
X173235000Y-56640000D01*
X152795000Y-54990000D02*
X152795000Y-56640000D01*
X152795000Y-51340000D02*
X152795000Y-52990000D01*
X173235000Y-56640000D02*
X173235000Y-51340000D01*
X152795000Y-54990000D02*
G75*
G03*
X152795000Y-52990000I0J1000000D01*
G01*
%TO.C,U5*%
X174660000Y-83245000D02*
X173010000Y-83245000D01*
X169360000Y-83245000D02*
X169360000Y-101145000D01*
X169360000Y-101145000D02*
X174660000Y-101145000D01*
X171010000Y-83245000D02*
X169360000Y-83245000D01*
X174660000Y-101145000D02*
X174660000Y-83245000D01*
X171010000Y-83245000D02*
G75*
G03*
X173010000Y-83245000I1000000J0D01*
G01*
%TO.C,U1*%
X127035000Y-56640000D02*
X127035000Y-51340000D01*
X106595000Y-54990000D02*
X106595000Y-56640000D01*
X106595000Y-51340000D02*
X106595000Y-52990000D01*
X127035000Y-51340000D02*
X106595000Y-51340000D01*
X106595000Y-56640000D02*
X127035000Y-56640000D01*
X106595000Y-54990000D02*
G75*
G03*
X106595000Y-52990000I0J1000000D01*
G01*
%TD*%
M02*
